<svg width="72" height="103" viewBox="0 0 72 103" fill="none" xmlns="http://www.w3.org/2000/svg">
<path d="M34.022 0.44855C26.6505 2.44011 20.7824 5.79015 15.3231 11.1186C9.83736 16.4865 6.3956 22.4876 4.4967 30.0186C3.74505 32.9466 3.41538 35.9801 3.03297 43.1813C2.88791 46.0038 2.65055 50.4881 2.50549 53.1391C2.36044 55.7901 1.79341 66.4337 1.25275 76.8136C0.712088 87.1802 0.197802 96.65 0.131868 97.8502C0.0659341 99.0504 0 100.541 0 101.187V102.335L2.54505 102.308L5.07692 102.269L5.14286 68.7023L5.22198 35.1359L5.51209 33.5533C7.14725 24.7034 11.156 17.3174 17.4066 11.6329C20.4396 8.86321 23.367 6.88484 27.2308 4.9988C30.9363 3.19189 34.2989 2.084 36.1319 2.07081C37.6352 2.07081 40.444 2.95448 43.7802 4.47123C46.6681 5.77696 48.7385 7.01673 52.5626 9.70732C53.1033 10.103 53.2747 10.1426 54.0791 10.1426H54.989V10.6965C54.989 11.501 55.3714 12.1473 56.7824 13.7696C62.189 19.9421 64.9319 25.6134 66.422 33.672L66.7648 35.5316L66.8176 69.0056L66.8703 102.466H69.4418H72V102.058C72 101.833 71.8813 99.4989 71.7363 96.8874C71.5912 94.2628 71.1165 85.2546 70.6813 76.8795C70.2462 68.5044 69.811 59.9183 69.6923 57.8212C69.5868 55.711 69.3495 51.0552 69.1648 47.4678C68.4923 34.3314 68.2945 32.5113 67.0549 28.3699C64.6418 20.2718 60.1582 13.5849 53.4989 8.19057C49.9516 5.30215 45.5077 2.83578 41.2747 1.38498C39.6791 0.844224 36.3824 -0.0130696 35.9604 0.000119512C35.8022 0.000119512 34.9319 0.211146 34.022 0.44855Z" fill="#626262"/>
<path d="M50.5318 12.1209C52.1537 13.9278 52.5757 15.1676 52.457 17.8186C52.3911 19.1507 52.3515 19.3221 51.8504 20.3641C50.8219 22.5007 49.7669 23.3316 45.3493 25.4683C41.8285 27.1829 41.3405 27.4862 39.9559 28.7919C38.1362 30.5197 37.3449 31.4957 36.6724 32.8938C35.2482 35.7822 35.0768 36.9296 34.9845 44.0649C34.9449 47.0984 34.9449 49.578 34.9845 49.578C35.0241 49.578 35.3669 49.1428 35.7493 48.6152C36.7911 47.1644 37.7933 46.0697 38.9142 45.1333C40.0878 44.1705 39.9559 44.6057 40.2197 40.8996C40.5098 36.8637 41.4329 34.6083 43.9515 31.7331C45.7054 29.7416 47.3801 28.6469 50.334 27.5654C51.112 27.2752 52.2329 26.8268 52.8131 26.5894L53.868 26.1409L53.9076 18.6627L53.934 11.1976H51.8109H49.701L50.5318 12.1209ZM37.4636 42.4427C38.4394 43.4319 37.3054 44.7508 36.2109 43.8935C35.657 43.4582 35.7889 42.6537 36.501 42.2712C36.9889 41.9943 37.0153 42.0074 37.4636 42.4427Z" fill="#626262"/>
<path d="M30.4089 14.4554C30.3297 14.7983 29.9078 19.2958 29.4726 24.3208C29.3671 25.5474 29.2616 26.8136 29.222 27.1169C29.1693 27.684 29.1825 27.684 29.7231 27.8423C30.422 28.0533 31.7407 29.3459 32.255 30.3219C32.5847 30.955 32.6242 31.1924 32.6374 32.2343C32.6374 33.2762 32.5847 33.5268 32.255 34.239C31.8067 35.2018 30.7649 36.2702 29.855 36.679C28.8924 37.1011 27.4023 37.1538 26.255 36.7977C25.477 36.5603 25.1737 36.3757 24.4748 35.7162C24.0001 35.281 23.4858 34.6479 23.3275 34.3182L23.0374 33.7247L22.3649 33.8038C21.9957 33.8434 19.9385 34.028 17.8023 34.2127C11.6968 34.7402 9.70556 34.9513 9.5605 35.0831C9.41545 35.2282 9.37589 44.698 9.52094 45.2256L9.61325 45.5685L14.9935 46.0565C17.9473 46.3335 20.6506 46.5445 20.9803 46.5445C21.5737 46.5445 21.5869 46.5313 22.233 45.5949C23.3539 43.9594 24.7385 43.2736 26.6374 43.4187C27.4286 43.4846 27.8242 43.5901 28.6154 43.999C29.7363 44.5661 30.277 45.186 30.7253 46.373C31.7539 49.1296 30.6198 51.6223 27.8374 52.7434C27.2572 52.9808 26.9143 53.205 26.8089 53.416C26.7297 53.5875 26.4264 56.3704 26.1231 59.6017C25.4111 67.4756 25.3847 67.779 25.5561 68.8077C25.6352 69.2957 25.7407 69.9156 25.7803 70.1926C25.8726 70.7861 26.3473 71.3532 26.5187 71.0631C26.6638 70.7861 26.8484 69.243 27.2176 65.339C28.0484 56.5023 28.2726 54.392 28.3517 54.3525C29.5122 53.8776 31.5034 52.1367 32.1495 51.0288C32.4924 50.4485 32.5056 50.3693 32.5056 48.391C32.5056 46.3467 32.5056 46.3335 32.0704 45.4762C31.5825 44.4606 30.0792 42.9439 29.1297 42.4822C27.9957 41.9415 25.833 41.77 24.4616 42.1261C23.3012 42.4295 22.4836 42.9439 21.3495 44.0649L20.3209 45.0805L19.0286 44.9618C18.3165 44.8959 16.3385 44.7112 14.6374 44.5529C12.9363 44.4079 11.4462 44.2232 11.3143 44.1573C11.0902 44.0386 11.077 43.7352 11.077 40.2269V36.4152L11.5122 36.3361C11.7363 36.2965 13.0286 36.1778 14.3737 36.0591C15.7187 35.9404 17.9737 35.7294 19.3847 35.5975L21.9561 35.3337L22.2198 35.6898C23.499 37.4704 25.0286 38.3409 27.2308 38.5651C29.1429 38.7497 30.8704 38.1562 32.3078 36.8373C32.7825 36.3889 33.2308 35.8217 33.455 35.3601C33.8111 34.6347 33.8242 34.5028 33.8638 32.3398C33.9165 30.19 33.9034 30.0317 33.6133 29.4382C33.3363 28.8711 32.0704 27.473 31.2924 26.8663C30.91 26.563 30.91 26.6421 31.3715 21.7489C31.5825 19.5332 31.8067 17.2646 31.8462 16.6975L31.9385 15.6819H35.4858C38.2418 15.6819 39.1385 15.7215 39.4814 15.8666C39.9693 16.0644 40.022 16.1963 40.1539 17.6603C40.1935 18.1351 40.2594 18.7946 40.299 19.1507L40.3781 19.7706L41.1561 19.3617C42.066 18.8737 42.0396 19.0715 41.6968 16.0776L41.4726 14.1652L35.9737 14.1256L30.488 14.0992L30.4089 14.4554Z" fill="#626262"/>
<path d="M32.3738 16.8162C32.3342 17.146 32.0968 19.4145 31.8595 21.8545L31.4243 26.286L32.5056 27.3543C33.099 27.9347 33.7056 28.5809 33.8507 28.792L34.1144 29.1744L34.3386 28.1984C34.9452 25.7057 36.2507 23.5427 38.4001 21.4456L39.8639 20.0344L39.7716 18.7418C39.732 18.0428 39.6529 17.1855 39.6133 16.8294L39.521 16.2095H36.0001H32.4661L32.3738 16.8162Z" fill="#626262"/>
<path d="M45.4284 18.1088C45.0592 18.3462 43.8856 19.0584 42.7911 19.7047C40.4702 21.05 39.679 21.6171 38.6109 22.725C36.1977 25.1913 34.9317 28.7128 34.9449 32.9202V33.9489L35.7098 32.4849C36.6328 30.7308 37.3186 29.8207 38.7823 28.3963C40.5361 26.7081 42.2109 25.653 45.1383 24.3868L46.4175 23.8197V21.0368C46.4175 18.3857 46.3647 17.6603 46.1669 17.6603C46.1273 17.6603 45.7845 17.8582 45.4284 18.1088Z" fill="#626262"/>
<path d="M56.8354 24.8616C55.1475 26.5762 53.6837 27.4599 51.0332 28.4095C48.2112 29.4119 46.7738 30.3219 44.9804 32.2343C42.8705 34.5029 41.8552 36.4549 41.42 39.0927C41.2881 39.884 41.0112 43.3792 41.0771 43.4847C41.1167 43.5374 48.1716 40.2138 49.4508 39.5279C53.3672 37.4309 55.0947 35.7295 56.7035 32.4058C57.4683 30.8231 57.6925 29.9922 57.8771 28.027C58.0486 26.3388 58.0618 23.8592 57.9167 23.8592C57.8639 23.8592 57.376 24.3077 56.8354 24.8616Z" fill="#626262"/>
<path d="M57.0066 34.7139C56.7033 34.8854 56.0044 35.7427 56.0967 35.835C56.1363 35.8614 60.2242 36.3362 60.8967 36.3889C60.9099 36.3889 60.9231 38.1299 60.9231 40.2666V44.1442L60.5011 44.2101C59.3671 44.4079 53.2879 44.9619 52.1803 44.9619H51.4022L50.611 44.1046C49.6879 43.1154 48.8835 42.5878 47.7099 42.179L46.8792 41.8888L44.9671 42.8516C39.7187 45.4894 39.2572 45.9115 39.2572 48.2592C39.244 50.6332 40.6154 52.8094 42.8176 53.9173C43.1209 54.0756 43.4506 54.3262 43.5297 54.4844C43.6748 54.7614 44.4923 62.7144 45.5737 74.5583C45.9693 78.8579 46.1143 80.0845 46.2726 80.1505C46.8528 80.3747 47.4726 79.1877 47.4726 77.8556C47.4726 77.3412 47.0242 72.2897 46.4835 66.6448C45.1649 52.9413 45.2176 53.4952 45.0857 53.2578C45.033 53.1391 44.6242 52.9149 44.189 52.7567C42.5011 52.15 41.4857 51.1344 41.011 49.6308C40.6814 48.5361 40.6814 47.8503 41.011 46.8743C41.4066 45.74 41.8682 45.0146 42.5934 44.4475C43.4901 43.7353 44.3868 43.4583 45.7715 43.4583C46.7077 43.4715 47.0242 43.5243 47.6835 43.8276C48.5671 44.2365 49.3978 44.9883 50.0044 45.9379L50.4264 46.5841L51.811 46.505C53.2352 46.4391 62.044 45.6345 62.3473 45.5422C62.466 45.5026 62.5055 44.3288 62.5055 40.2402V34.9777L60.4352 34.7667C57.9824 34.5029 57.4022 34.4897 57.0066 34.7139Z" fill="#626262"/>
<path d="M18.3298 36.1251C17.9342 36.1911 16.4968 36.323 15.1386 36.4417C13.7803 36.5604 12.4089 36.6923 12.0661 36.7318L11.4727 36.8241V40.0687C11.4727 42.4823 11.5122 43.3791 11.6441 43.5374C11.7628 43.6957 12.6595 43.8276 15.9957 44.1309L20.1891 44.5266L21.1386 43.5902C22.6287 42.113 24.2771 41.4008 26.2419 41.4008C29.3012 41.4008 32.2023 43.5506 32.9672 46.3994C33.1913 47.2436 33.1518 49.1824 32.9012 50.066C32.4792 51.5168 31.2133 53.1259 29.6573 54.1678C29.3276 54.3921 28.9847 54.6558 28.9056 54.7614C28.8133 54.8669 28.6551 55.8297 28.5496 56.9112C28.1276 61.0921 27.165 71.195 27.165 71.4192C27.165 71.5643 27.4419 71.8808 27.7847 72.1314C28.8792 72.9492 30.5935 74.7825 31.3847 75.9827C32.2287 77.262 32.6507 78.2116 33.165 79.9394L33.5078 81.0869L34.2727 80.6912C34.9188 80.3483 35.2353 80.2823 36.2902 80.2164L37.5562 80.1372L37.7012 79.1349C37.9913 77.1697 38.8749 75.9695 40.9056 74.7693C42.9628 73.5559 44.4661 72.2501 44.6507 71.5247C44.7562 71.1291 44.7562 71.2478 44.0441 63.8882C43.0946 54.0491 43.2397 54.7877 42.1188 54.0623C41.0243 53.3369 39.943 52.1631 39.4419 51.1343C38.9144 50.066 38.5979 48.5361 38.7034 47.6392C38.7562 47.2436 38.7298 46.927 38.6507 46.8874C38.4792 46.7687 37.1606 48.3778 36.4089 49.644C35.5782 51.0156 35.0243 52.1367 34.4705 53.5216L34.0353 54.6558L34.0221 51.7542C34.0221 50.1584 33.9825 45.9642 33.9298 42.4295L33.8507 36.0064L32.888 36.9033C32.3606 37.3913 31.4902 38.0244 30.9628 38.3145L30.0001 38.8289L27.9166 38.8685L25.8331 38.9212L24.8705 38.4596C24.3034 38.1826 23.5782 37.6946 23.0639 37.2198C21.732 35.9932 21.7452 35.9932 20.3078 36.0064C19.6221 36.0196 18.7254 36.0724 18.3298 36.1251ZM42.6858 66.7898C42.6067 70.8917 42.3694 71.472 40.299 72.8305C39.6792 73.2393 38.6639 73.912 38.0441 74.3208C36.5276 75.3232 36.1188 75.8112 35.3672 77.539C35.2617 77.7896 35.2221 77.0905 35.2221 74.7033C35.2089 68.966 35.3803 68.5572 38.8221 66.2755C40.8265 64.9434 42.0397 63.7959 42.343 62.9782L42.5276 62.4638L42.6331 63.176C42.699 63.5717 42.7122 65.194 42.6858 66.7898Z" fill="#626262"/>
<path d="M41.1562 66.0777C40.9847 66.2096 40.1803 66.7371 39.3759 67.2383C37.6617 68.3066 36.8836 69.032 36.5803 69.8761C36.3298 70.5752 36.1452 73.978 36.3562 73.978C36.4353 73.978 36.7254 73.8065 37.0023 73.6087C37.2792 73.3976 38.0968 72.8833 38.8089 72.4744C40.299 71.5907 40.8792 71.1291 41.3012 70.4433C41.565 70.008 41.6045 69.7443 41.6441 68.1748C41.6705 67.1988 41.6441 66.2623 41.5781 66.1041C41.4726 65.8271 41.4726 65.8271 41.1562 66.0777Z" fill="#626262"/>
<path d="M54.7382 37.1143C53.4855 38.4464 51.2437 39.9368 48.8305 41.0711C48.369 41.2821 47.9998 41.4931 47.9998 41.5459C47.9998 41.5986 48.369 41.8492 48.8305 42.0866C49.2789 42.324 50.1228 42.9703 50.7031 43.5242L51.758 44.5266L54.9888 44.2233C58.8393 43.854 60.1448 43.6825 60.3294 43.4979C60.4085 43.4187 60.4745 42.0602 60.5009 40.1083L60.5536 36.8374L59.1954 36.6791C58.4437 36.5868 57.2965 36.4812 56.6371 36.4417L55.4503 36.3757L54.7382 37.1143Z" fill="#626262"/>
<path d="M12.1055 71.1686L12.1583 78.2643L12.7517 79.425C13.7143 81.2978 14.6901 82.1815 17.1824 83.4476C18.2901 84.0148 18.1319 84.1467 19.3846 81.5616C21.2572 77.684 21.8638 75.4286 21.9824 71.9072L22.0616 69.7705L18.5802 68.0427C15.0726 66.2886 13.3187 65.2466 12.6066 64.4949C12.3824 64.2706 12.1715 64.086 12.1319 64.086C12.0791 64.086 12.066 67.2778 12.1055 71.1686Z" fill="#626262"/>
<path d="M18.356 65.6556C17.3934 65.9853 17.2615 66.1436 17.6703 66.4601C17.8549 66.592 18.2769 66.8426 18.6197 67.0009L19.2395 67.291L19.8989 66.803C20.2681 66.526 20.5714 66.2623 20.5714 66.2095C20.5714 66.1568 20.4395 65.9853 20.2813 65.8402C19.8329 65.4313 19.1736 65.3654 18.356 65.6556Z" fill="#626262"/>
<path d="M22.5892 67.4097C22.8265 68.1351 22.8661 68.5571 22.8661 70.6806C22.8793 75.521 22.154 78.0665 18.8441 84.7402C17.0639 88.3408 15.7584 91.4271 15.6002 92.3503C15.4947 93.0757 15.6925 92.9174 16.4178 91.7304C16.7079 91.2556 16.9848 90.8731 17.0375 90.8599C17.0903 90.8599 17.1562 91.4403 17.1694 92.1393L17.209 93.4318L17.6969 92.0206C18.3826 90.0686 19.2265 88.1694 20.6112 85.4524C24.1189 78.5677 24.8441 76.2068 24.8573 71.6038C24.8573 69.4804 24.8441 69.4144 24.4881 68.6758C24.132 67.9372 22.8265 66.592 22.4705 66.592C22.365 66.592 22.4046 66.8425 22.5892 67.4097Z" fill="#626262"/>
<path d="M25.9251 72.5007C25.8855 72.5667 25.7668 73.358 25.6614 74.2681C25.2921 77.262 24.5537 79.5437 22.7998 83.1971C22.2328 84.3841 21.7581 85.4393 21.7581 85.5316C21.7581 85.6239 22.7603 86.2042 23.9866 86.8241C27.0328 88.3804 28.7734 89.5674 30.4877 91.2293L31.9119 92.6141L32.1756 91.9942C32.5449 91.1765 32.7559 88.0639 32.6636 84.793C32.6108 82.6959 32.5449 82.1815 32.2548 81.1C31.5427 78.5545 30.1053 76.1014 28.2855 74.3076C27.1251 73.1602 26.0306 72.3293 25.9251 72.5007Z" fill="#626262"/>
<path d="M42.1978 75.2704C41.2879 75.8244 40.2198 76.6025 39.811 77.0114C39.1253 77.6972 39.0726 77.7896 38.9275 78.66C38.6638 80.2691 38.5715 82.1552 38.7693 82.1552C38.8484 82.1552 39.4418 81.8386 40.0616 81.4429C40.6945 81.0605 41.4726 80.612 41.789 80.4538C42.5934 80.0449 43.5165 79.148 43.7934 78.5281C43.9121 78.238 44.0572 77.5653 44.1099 77.0378C44.2022 76.075 44.0836 74.2285 43.9253 74.2549C43.8858 74.2549 43.1077 74.7165 42.1978 75.2704Z" fill="#626262"/>
<path d="M45.1383 77.6708C45.046 78.1456 44.7955 78.871 44.5845 79.2799C44.3735 79.6888 44.2416 80.0581 44.2812 80.0976C44.3207 80.1372 44.624 80.1768 44.9669 80.1768H45.5735L45.5207 79.3458C45.4944 78.8974 45.4284 78.1456 45.3889 77.6708L45.2966 76.8135L45.1383 77.6708Z" fill="#626262"/>
<path d="M47.7497 79.8603C47.7497 80.0054 47.7892 80.0449 47.8288 79.9394C47.8683 79.8471 47.8552 79.7284 47.8156 79.6888C47.776 79.6361 47.7365 79.7152 47.7497 79.8603Z" fill="#626262"/>
<path d="M58.8789 80.5988C58.1405 80.9813 57.9559 81.0077 56.1756 81.1132C55.1207 81.166 53.024 81.2187 51.4943 81.2319C49.9778 81.2319 48.5141 81.2715 48.2504 81.311L47.7756 81.3902L47.6833 83.5268C47.4987 87.5231 47.2482 87.9847 44.2943 89.7653C42.1053 91.0842 41.3273 91.8096 40.5361 93.2736L40.0877 94.0913V91.1633C40.0877 89.5542 40.1537 87.7737 40.2328 87.2066C40.5097 85.1755 41.3273 84.0412 43.3976 82.8146C44.8745 81.9441 45.5075 81.4957 45.4284 81.3506C45.2965 81.1528 43.0811 81.2055 42.4482 81.4297C41.5647 81.7463 40.0614 82.7487 39.2438 83.5532C38.7822 84.028 38.3339 84.6479 38.0438 85.2414L37.5954 86.1778L37.5822 83.6851V81.1923L36.5932 81.2715C34.3119 81.4429 33.7712 82.3794 33.7581 86.1383V87.6946H34.5888C35.0372 87.6946 35.6306 87.7341 35.9207 87.7869L36.4218 87.866L36.3427 88.4068C36.1976 89.2773 35.1427 92.8779 34.4174 94.9222C34.0614 95.9642 33.7581 96.927 33.7581 97.0589C33.7581 97.2039 33.8767 97.3754 34.0086 97.4545C34.4042 97.6656 35.4196 97.6128 35.657 97.3754C35.7756 97.2699 35.8679 97.1644 35.8679 97.1512C35.8679 96.6368 36.3031 93.2868 36.3954 93.0494C36.5141 92.7196 36.5537 92.7064 37.7009 92.7064C38.5053 92.7064 38.9141 92.7592 38.9932 92.8647C39.046 92.957 39.191 93.9067 39.3097 94.9618C39.4284 96.0169 39.5603 97.0061 39.613 97.1512C39.7053 97.4282 40.1668 97.6392 40.3778 97.5073C40.4833 97.4413 40.4174 96.5181 40.2592 95.9642C40.2064 95.7531 40.3119 95.7399 41.5383 95.7663L42.8965 95.8059L43.1734 96.5972L43.4504 97.3886L47.2086 97.4941C51.9031 97.6128 56.4658 97.5073 57.3493 97.2435C58.3119 96.9665 58.9976 96.3994 59.4196 95.5157L59.802 94.7508L59.8416 87.4572C59.8679 83.4609 59.8416 80.1768 59.7756 80.1768C59.7229 80.19 59.3141 80.3746 58.8789 80.5988Z" fill="#626262"/>
<path d="M12.1316 81.3111C12.1316 81.588 12.6723 83.2763 12.9624 83.9225C13.147 84.305 13.5162 84.8853 13.7931 85.1887C14.3997 85.8613 16.0349 87.0352 16.3514 87.0352C16.4964 87.0352 16.747 86.7186 17.0635 86.1251C17.3272 85.6239 17.5382 85.1623 17.5382 85.0964C17.5382 85.0304 17.103 84.7534 16.5887 84.4765C15.1118 83.6851 13.8854 82.841 12.9624 81.9837C12.514 81.5485 12.1316 81.2583 12.1316 81.3111Z" fill="#626262"/>
<path d="M44.6371 83.3422C43.6218 83.9885 42.5932 84.7007 42.3426 84.9381C41.7888 85.4657 41.4591 86.1911 41.2877 87.2989C41.1163 88.3673 41.1031 90.161 41.2745 90.2665C41.3404 90.3061 41.6701 90.1214 42.013 89.8708C42.3558 89.607 42.8701 89.2773 43.1734 89.119C44.2547 88.5783 45.8371 87.4308 46.1536 86.956C46.4569 86.5076 46.4833 86.323 46.5229 84.6743C46.602 81.8386 46.7998 81.9705 44.6371 83.3422Z" fill="#626262"/>
<path d="M20.5316 87.6419L19.9778 88.7761L20.2811 89.0135C20.4393 89.1454 21.5075 89.7389 22.6415 90.3325C25.7668 91.9547 26.7558 92.6406 28.4965 94.4343C29.3404 95.2916 30.0657 96.0038 30.1184 96.0038C30.158 96.0038 30.4349 95.5158 30.7382 94.9355L31.2657 93.8671L30.8042 93.1549C29.8151 91.6778 28.1009 90.3061 25.0547 88.5915C23.591 87.7606 21.8108 86.811 21.3228 86.6131C21.1382 86.534 20.9932 86.7055 20.5316 87.6419Z" fill="#626262"/>
<path d="M34.589 89.0399C34.4439 89.2114 34.0088 90.1478 33.6263 91.1238C32.0835 95.0673 30.2373 98.2195 27.4681 101.649C27.0197 102.203 27.178 102.335 28.2989 102.335H29.1164L30.3033 100.514C31.8593 98.1404 32.7164 96.5049 33.4153 94.6057C34.0615 92.7856 35.0505 89.6202 35.1033 89.1586C35.156 88.7365 34.9186 88.6838 34.589 89.0399Z" fill="#626262"/>
<path d="M23.0902 92.2053C23.0242 92.3768 22.8133 94.1177 22.6286 96.0697C22.1144 101.306 22.0616 102.044 22.1935 102.269C22.2726 102.427 22.5759 102.466 23.6045 102.466C24.3166 102.466 25.0418 102.414 25.2133 102.348C25.477 102.255 26.3737 101.174 26.3737 100.963C26.3737 100.923 25.9122 100.884 25.3451 100.884C23.9078 100.884 23.8682 100.844 24.0001 99.367C24.3561 95.6477 24.5275 92.9439 24.4089 92.7329C24.3429 92.6142 24.0396 92.3636 23.7495 92.2053L23.2089 91.9019L23.0902 92.2053Z" fill="#626262"/>
<path d="M25.1342 93.3527C25.0155 93.5374 24.6727 96.8215 24.5803 98.6547L24.488 100.317L25.2001 100.396C26.8485 100.594 26.9672 100.567 27.6265 99.7231C28.6946 98.3778 29.2617 97.4809 29.1825 97.2039C29.0639 96.7423 27.3891 94.7903 26.4529 93.999C25.5562 93.2472 25.2792 93.1153 25.1342 93.3527Z" fill="#626262"/>
<path d="M37.3978 93.8671C37.266 94.0781 36.3429 102.058 36.4352 102.15C36.4616 102.176 37.0418 102.242 37.7143 102.295L38.9407 102.374L38.8616 101.134C38.6901 98.6548 38.2286 94.3419 38.1099 94.0517C37.9912 93.7748 37.5297 93.6561 37.3978 93.8671Z" fill="#626262"/>
<path d="M41.5383 97.0721C41.5383 97.4545 42.6592 100.791 43.0416 101.543C43.3713 102.189 43.8724 102.427 44.5713 102.242L44.9669 102.137L44.3471 101.147C44.0175 100.607 43.3449 99.4197 42.857 98.5097C42.0131 96.9138 41.5383 96.3862 41.5383 97.0721Z" fill="#626262"/>
<path d="M59.3276 97.7051C58.5101 98.3382 58.1672 98.4173 55.7804 98.5228C54.5145 98.5756 51.5474 98.6283 49.187 98.6283C44.9936 98.6415 44.3079 98.6811 44.3079 98.9185C44.3079 98.9845 44.6375 99.5648 45.0463 100.224L45.7848 101.411H51.6793H57.5606L58.2199 100.91C59.2353 100.145 59.6178 99.4461 59.8287 98.0085C59.9079 97.3886 59.8024 97.3226 59.3276 97.7051Z" fill="#626262"/>
<path d="M34.0878 98.8263C33.8636 98.9186 33.5207 99.1956 33.3229 99.4198C32.8878 99.9473 32.7823 99.9473 32.7032 99.4066L32.6372 98.9713L32.268 99.5385C31.8988 100.092 31.5295 101.345 31.6878 101.49C31.7273 101.53 32.5581 101.53 33.5339 101.477L35.3141 101.385L35.3933 100.963C35.4328 100.739 35.4988 100.119 35.5515 99.5912L35.6438 98.6416H35.0636C34.7471 98.6548 34.2988 98.7339 34.0878 98.8263Z" fill="#626262"/>
<path d="M39.7449 98.9976C39.7844 99.2087 39.8504 99.8286 39.9031 100.383L39.9822 101.411H40.8262C41.2877 101.411 41.6701 101.385 41.6701 101.345C41.6701 101.108 40.8394 99.0768 40.6679 98.8789C40.5361 98.7471 40.2723 98.6415 40.0613 98.6415C39.7053 98.6415 39.6789 98.6811 39.7449 98.9976Z" fill="#626262"/>
<path d="M30.5409 102.176C30.5013 102.255 30.5277 102.361 30.6068 102.4C30.8046 102.532 30.9365 102.361 30.7651 102.189C30.6727 102.097 30.5936 102.097 30.5409 102.176Z" fill="#626262"/>
</svg>
