<svg width="156" height="156" viewBox="0 0 156 156" fill="none" xmlns="http://www.w3.org/2000/svg">
<path d="M42.1606 5.27423C40.1297 5.75922 38.1595 6.94137 36.7954 8.45695C34.7039 10.7606 33.8552 13.3674 33.8552 17.4292V19.6723L24.398 19.7632C15.6076 19.8541 14.7892 19.9147 13.3645 20.4907C9.90902 21.9153 7.57502 24.219 6.211 27.5836C5.54414 29.1598 5.51383 29.7054 5.4229 38.9202C5.30165 49.2564 5.39259 49.9536 6.75661 50.5901C7.69627 51.0145 130.095 51.0751 131.247 50.6508C131.641 50.4992 132.156 49.9536 132.368 49.4383C132.853 48.2561 132.307 46.7709 131.247 46.3465C130.792 46.1949 106.027 46.0737 70.3504 46.0737H10.1818L10.2728 37.7986L10.3637 29.4932L11.273 28.008C11.849 27.0986 12.7583 26.1893 13.6677 25.6133L15.1529 24.704L24.5192 24.6131L33.8552 24.5221V26.8864C33.8855 33.5853 37.0076 37.9199 42.7365 39.102C45.1311 39.587 46.1921 39.3142 46.7983 38.0108C47.253 37.0711 47.253 36.8893 46.7983 35.9496C46.4042 35.1009 46.1011 34.8584 45.1615 34.7068C41.8272 34.1915 40.251 33.2216 39.281 31.0694C38.796 30.0085 38.7051 28.9779 38.7051 22.1881C38.7051 14.004 38.8263 13.1553 40.3116 11.5487C41.2816 10.5181 43.1912 9.69973 44.7674 9.69973C45.5252 9.69973 46.677 9.97254 47.3439 10.2757C49.8901 11.4578 50.8297 13.3068 50.8297 17.1261V19.7026H49.1929C47.0105 19.7026 46.1617 20.0663 45.6768 21.1878C45.1918 22.37 45.7374 23.8553 46.7983 24.2796C47.1923 24.4312 51.9513 24.5524 57.3771 24.5524H67.198V26.8864C67.2283 33.5853 70.3504 37.9199 76.0793 39.102C78.474 39.587 79.5349 39.3142 80.1411 38.0108C80.5958 37.0711 80.5958 36.8893 80.1411 35.9496C79.7471 35.1009 79.4439 34.8584 78.5043 34.7068C75.17 34.1915 73.5938 33.2216 72.6238 31.0694C72.1388 30.0085 72.0479 28.9779 72.0479 22.1881C72.0479 14.004 72.1691 13.1553 73.6544 11.5487C75.8368 9.15412 80.3836 9.15412 82.566 11.5487C83.7179 12.8218 84.1726 14.3374 84.1726 17.1261V19.7026H82.5357C80.3533 19.7026 79.5046 20.0663 79.0196 21.1878C78.5346 22.37 79.0802 23.8553 80.1411 24.2796C80.5352 24.4312 85.2941 24.5524 90.6592 24.5524H100.45L100.601 27.8564C100.783 31.706 101.511 33.6459 103.572 35.889C106.755 39.3142 112.514 40.466 113.575 37.8896C114.272 36.1618 112.999 34.5553 110.907 34.5553C109.816 34.525 107.816 33.5853 106.997 32.7063C105.512 31.0997 105.391 30.251 105.391 22.1275C105.391 14.004 105.512 13.1553 106.997 11.5487C109.18 9.15412 113.726 9.15412 115.909 11.5487C117.061 12.8218 117.515 14.3374 117.515 17.1261V19.7026H115.879C113.696 19.7026 112.847 20.0663 112.362 21.1878C112.059 21.9456 112.059 22.3094 112.362 23.0368C112.575 23.5521 112.908 24.0674 113.09 24.1887C113.272 24.3099 119.637 24.4615 127.245 24.5524L141.068 24.704L142.553 25.6133C143.462 26.1893 144.371 27.0986 144.947 28.008L145.857 29.4932V78.9618V128.43L144.947 129.916C144.371 130.825 143.462 131.734 142.553 132.31L141.068 133.22L134.278 133.371C127.912 133.523 127.427 133.553 127.033 134.129C126.306 135.099 126.215 135.978 126.73 136.948C127.367 138.221 128.033 138.312 135.278 138.16C140.613 138.039 141.492 137.948 142.977 137.372C146.493 135.948 149.282 132.947 150.282 129.522C150.919 127.339 150.919 30.5844 150.282 28.402C149.282 24.9768 146.524 21.9759 142.977 20.5513C141.401 19.9147 140.825 19.8541 131.853 19.7632L122.365 19.6723V17.3383C122.365 13.034 121.213 10.0028 118.758 7.7901C112.605 2.24307 102.845 5.24392 100.965 13.3068C100.723 14.2465 100.541 16.0652 100.541 17.3383V19.7026H94.7816H89.0224V17.3383C89.0224 16.0652 88.8405 14.2465 88.5981 13.3068C86.7187 5.24392 76.9584 2.24307 70.8051 7.7901C68.3499 10.0028 67.198 13.034 67.198 17.3383V19.7026H61.4388H55.6796V17.4292C55.6796 10.8516 52.6787 6.54732 47.2227 5.27423C45.1918 4.78924 44.1915 4.78924 42.1606 5.27423Z" fill="#44749D"/>
<path d="M6.51406 62.8967C5.96845 63.1998 5.63502 63.6848 5.51378 64.3516C5.42284 64.8669 5.36222 79.5681 5.42284 96.9973L5.51378 128.673L6.21094 130.34C7.60528 133.735 9.93928 136.039 13.3645 137.433C14.6982 137.948 15.7591 138.07 20.9424 138.16C28.1869 138.312 28.8537 138.221 29.4903 136.948C30.0056 135.978 29.9147 135.099 29.1872 134.129C28.7931 133.553 28.3081 133.523 21.9427 133.371L15.1529 133.22L13.6676 132.31C12.7583 131.734 11.8489 130.825 11.273 129.916L10.3636 128.43L10.2121 95.9667C10.1211 78.1131 10.0302 63.4726 9.96959 63.4423C9.69678 63.1695 8.05995 62.442 7.72653 62.442C7.51434 62.4723 6.96873 62.6542 6.51406 62.8967Z" fill="#44749D"/>
<path d="M72.6543 68.1709C70.5324 68.8377 68.9865 70.1411 67.9256 72.1417C67.4103 73.0814 67.3497 74.0514 67.2588 79.9318L67.1678 86.661L59.5293 86.7519C52.3758 86.8429 51.7998 86.8732 50.6783 87.5097C49.2537 88.2675 48.1018 89.4497 47.3137 90.9349C46.7984 91.8746 46.7378 92.7233 46.7378 97.6035C46.7378 102.787 46.7984 103.302 47.4046 104.424C48.1624 105.848 49.3446 107 50.8299 107.788C51.7695 108.304 52.7698 108.364 59.5293 108.455L67.1678 108.546L67.2588 126.794C67.3497 144.829 67.3497 145.041 68.0166 146.254C68.7744 147.678 69.9565 148.83 71.4418 149.618C72.3814 150.134 73.2302 150.194 78.1103 150.194C82.9905 150.194 83.8392 150.134 84.7789 149.618C86.2642 148.83 87.4463 147.678 88.2041 146.254C88.871 145.041 88.871 144.859 88.9619 125.793C89.0225 115.215 88.9619 106.091 88.871 105.545C88.6285 104.151 87.0826 103.393 85.6883 103.969C85.173 104.181 84.597 104.696 84.4455 105.09C84.2939 105.515 84.1727 114.093 84.1727 124.914V144.011L83.4149 144.738C82.7177 145.466 82.5662 145.496 78.1103 145.496C73.6545 145.496 73.503 145.466 72.8058 144.738L72.048 144.011V124.914C72.048 111.577 71.9571 105.606 71.7146 105.09C71.1084 103.757 70.4112 103.666 61.4086 103.666H52.9214L52.1939 102.908C51.4664 102.211 51.4361 102.059 51.4361 97.6035C51.4361 93.1477 51.4664 92.9961 52.1939 92.299L52.9214 91.5412H61.4086C66.986 91.5412 70.1384 91.4199 70.6234 91.2077C71.9268 90.6015 72.048 89.8437 72.048 81.8111V74.2332L72.8058 73.5057C73.503 72.7783 73.6545 72.748 78.1103 72.748C82.5662 72.748 82.7177 72.7783 83.4149 73.5057L84.1727 74.2332V81.8111C84.1727 89.8437 84.2939 90.6015 85.5973 91.2077C86.0823 91.4199 89.2347 91.5412 94.8121 91.5412H103.299L104.027 92.299C104.754 92.9961 104.785 93.1477 104.785 97.6035C104.785 102.059 104.754 102.211 104.027 102.908C103.633 103.332 103.027 103.666 102.693 103.666C99.9954 103.666 98.9648 107.121 101.39 108.122C103.815 109.122 107.27 107.364 108.907 104.272C109.422 103.332 109.483 102.484 109.483 97.6035C109.483 92.7233 109.422 91.8746 108.907 90.9349C108.119 89.4497 106.967 88.2675 105.542 87.5097C104.421 86.8732 103.845 86.8429 96.6914 86.7519L89.0529 86.661L88.9619 79.9318C88.871 73.7179 88.8104 73.1117 88.2041 71.9902C87.4463 70.5655 86.2642 69.4137 84.7789 68.6256C83.8696 68.1406 82.9299 68.0496 78.565 67.989C75.746 67.9587 73.0786 68.0496 72.6543 68.1709Z" fill="#44749D"/>
</svg>
