<svg width="48" height="48" viewBox="0 0 48 48" fill="none" xmlns="http://www.w3.org/2000/svg">
<rect width="48" height="48" rx="8" fill="white"/>
<path d="M21.2174 3.09573C20.1353 3.43583 19.3469 4.10056 18.8058 5.12085C18.543 5.60008 18.5121 6.09477 18.4657 9.0938L18.4193 12.5257L14.5237 12.5721C10.8754 12.6184 10.5816 12.6339 10.0097 12.9585C9.28309 13.345 8.69565 13.9479 8.29372 14.7054C8.03092 15.1846 8 15.6175 8 18.1064C8 20.7498 8.03092 21.0126 8.3401 21.5846C8.72657 22.3112 9.32947 22.8986 10.087 23.3006C10.5662 23.5634 11.0763 23.5943 14.5237 23.6407L18.4193 23.687L18.4657 32.9933C18.5121 42.1914 18.5121 42.2996 18.8522 42.918C19.2386 43.6445 19.8415 44.232 20.599 44.6339C21.0783 44.8967 21.5111 44.9276 24 44.9276C26.4889 44.9276 26.9217 44.8967 27.401 44.6339C28.1585 44.232 28.7614 43.6445 29.1478 42.918C29.4879 42.2996 29.4879 42.2068 29.5343 32.4832C29.5652 27.088 29.5343 22.4349 29.4879 22.1566C29.3643 21.4455 28.5758 21.059 27.8647 21.3527C27.6019 21.4609 27.3082 21.7237 27.2309 21.9247C27.1536 22.1411 27.0918 26.516 27.0918 32.0349V41.774L26.7053 42.145C26.3498 42.516 26.2725 42.5315 24 42.5315C21.7275 42.5315 21.6502 42.516 21.2947 42.145L20.9082 41.774V32.0349C20.9082 25.2329 20.8618 22.1875 20.7382 21.9247C20.429 21.2445 20.0734 21.1981 15.4821 21.1981H11.1536L10.7826 20.8117C10.4116 20.4561 10.3961 20.3788 10.3961 18.1064C10.3961 15.8339 10.4116 15.7566 10.7826 15.401L11.1536 15.0146H15.4821C18.3266 15.0146 19.9343 14.9527 20.1816 14.8445C20.8464 14.5353 20.9082 14.1489 20.9082 10.0523V6.18752L21.2947 5.8165C21.6502 5.44549 21.7275 5.43003 24 5.43003C26.2725 5.43003 26.3498 5.44549 26.7053 5.8165L27.0918 6.18752V10.0523C27.0918 14.1489 27.1536 14.5353 27.8184 14.8445C28.0657 14.9527 29.6734 15.0146 32.5179 15.0146H36.8464L37.2174 15.401C37.5884 15.7566 37.6039 15.8339 37.6039 18.1064C37.6039 20.3788 37.5884 20.4561 37.2174 20.8117C37.0164 21.0281 36.7072 21.1981 36.5372 21.1981C35.1614 21.1981 34.6357 22.9605 35.8725 23.4706C37.1092 23.9808 38.8715 23.0841 39.7063 21.5073C39.9691 21.0281 40 20.5952 40 18.1064C40 15.6175 39.9691 15.1846 39.7063 14.7054C39.3043 13.9479 38.7169 13.345 37.9903 12.9585C37.4184 12.6339 37.1246 12.6184 33.4763 12.5721L29.5807 12.5257L29.5343 9.0938C29.4879 5.92472 29.457 5.61554 29.1478 5.04356C28.7614 4.31699 28.1585 3.72955 27.401 3.32762C26.9372 3.08027 26.458 3.0339 24.2319 3.00298C22.7942 2.98752 21.4338 3.0339 21.2174 3.09573Z" fill="#44749D" stroke="#44749D"/>
</svg>
